<?xml version="1.0" encoding="UTF-8"?>
<svg version="1.1" xmlns="http://www.w3.org/2000/svg" width="3000" height="1000">
<path d="M0 0 C1.33333333 0.33333333 2.66666667 0.66666667 4 1 C4.33 0.67 4.66 0.34 5 0 C8.520928 -0.1495441 12.04246086 0.05428492 15.5625 0.1875 C16.54025391 0.20619141 17.51800781 0.22488281 18.52539062 0.24414062 C25.08243663 0.49447661 29.33346347 1.69022752 35 5 C36.2065625 5.4640625 36.2065625 5.4640625 37.4375 5.9375 C40.71751129 7.29750468 43.73208397 9.02794375 46.81640625 10.78125 C48.97931616 12.03000196 48.97931616 12.03000196 51.25390625 13.01171875 C51.83011719 13.33785156 52.40632813 13.66398437 53 14 C53.12375 14.763125 53.2475 15.52625 53.375 16.3125 C54.29845381 20.28335137 56.82940903 21.60588029 60 24 C62 26 62 26 62.8125 28.25 C63.88267777 31.14297215 63.88267777 31.14297215 66.2578125 33.45703125 C70.00484899 37.86697897 71.91300269 43.12223662 74.0625 48.4375 C74.50150635 49.51427002 74.9405127 50.59104004 75.39282227 51.70043945 C78.60093038 59.71199041 81.34045437 67.50909721 83 76 C83.14518066 76.72558105 83.29036133 77.45116211 83.43994141 78.19873047 C88.2185471 103.0053914 88.73145823 131.04136203 80 155 C79.61714844 156.05316406 79.23429687 157.10632813 78.83984375 158.19140625 C76.65412883 163.80679603 74.24322007 168.24824137 70.44921875 172.90234375 C68.75252239 175.35820883 67.84488104 177.76351747 66.8125 180.5625 C64.71078217 185.92597472 61.94435752 190.31980039 58.5625 194.9375 C58.10786377 195.56406494 57.65322754 196.19062988 57.18481445 196.83618164 C54.15656798 200.85529413 50.92760132 203.86345078 47 207 C44.43229597 210.25921459 44.43229597 210.25921459 44.2421875 214.2265625 C45.17261377 217.6317308 46.60111411 220.66202393 48.0625 223.875 C51.30830029 231.58521272 52.48996214 238.61021319 51 247 C49.56203157 250.22407659 48.05935622 252.21145329 45 254 C40.16438937 254.77715171 36.49241357 253.80611029 32 252 C29.5859375 250.01171875 29.5859375 250.01171875 27.375 247.6875 C26.61058594 246.88828125 25.84617187 246.0890625 25.05859375 245.265625 C22.92811591 242.92088658 20.88838469 240.54521415 19 238 C15.61586785 238.62743562 13.41549048 239.89470674 10.62109375 241.87890625 C9.78723145 242.46712158 8.95336914 243.05533691 8.09423828 243.66137695 C7.21751465 244.28874756 6.34079102 244.91611816 5.4375 245.5625 C4.54015137 246.19567139 3.64280273 246.82884277 2.71826172 247.48120117 C-1.07424226 250.16449895 -4.85086078 252.8619205 -8.55078125 255.671875 C-9.94876953 256.73148438 -9.94876953 256.73148438 -11.375 257.8125 C-12.14585938 258.41707031 -12.91671875 259.02164062 -13.7109375 259.64453125 C-16.49186962 261.29126068 -18.81239052 261.49183037 -22 262 C-24.0731782 262.75467934 -26.08735615 263.61241328 -28.1171875 264.4765625 C-37.31511074 268.39124955 -45.95427727 270.69247788 -56 271 C-56.66 270.67 -57.32 270.34 -58 270 C-58.5775 270.37125 -59.155 270.7425 -59.75 271.125 C-60.4925 271.41375 -61.235 271.7025 -62 272 C-64 271 -66 270 -68 269 C-69.51930116 268.92003678 -71.04111398 268.88239734 -72.5625 268.875 C-79.33105266 268.34037513 -83.96977309 264.38158038 -89.17138672 260.3828125 C-91.09594176 258.92744805 -93.05831017 257.53961935 -95.03515625 256.15625 C-104.36627617 249.53993709 -114.45299983 241.91741665 -119 231 C-119.2165625 229.4840625 -119.2165625 229.4840625 -119.4375 227.9375 C-119.68426943 225.02395803 -119.68426943 225.02395803 -121.40039062 223.76757812 C-123.7615752 221.15845476 -124.32110366 218.11525439 -125.15625 214.78125 C-125.34397476 214.059944 -125.53169952 213.338638 -125.72511292 212.59547424 C-126.33200929 210.23387186 -126.91866449 207.86801786 -127.5 205.5 C-127.70076141 204.68900848 -127.90152283 203.87801697 -128.10836792 203.04244995 C-139.49460266 156.64564305 -139.10129718 106.19854293 -113.68847656 64.23266602 C-101.81888425 45.67972274 -83.30623512 29.23496415 -62 23 C-60.2365625 22.4121875 -60.2365625 22.4121875 -58.4375 21.8125 C-57.633125 21.544375 -56.82875 21.27625 -56 21 C-56 20.34 -56 19.68 -56 19 C-18.54615309 0.23409693 -18.54615309 0.23409693 -4.5625 0.9375 C-2.7990625 0.9684375 -2.7990625 0.9684375 -1 1 C-0.67 0.67 -0.34 0.34 0 0 Z M-40 55 C-42.68601522 56.31587614 -45.38221436 57.60735521 -48.08203125 58.89453125 C-50.09849816 60.05677185 -51.39235078 61.32938801 -53 63 C-55.05824576 64.57371709 -57.15504526 66.08412599 -59.2578125 67.59765625 C-61.12361634 68.90028941 -61.12361634 68.90028941 -62 71 C-63.32144418 71.68993296 -64.65654735 72.35396812 -66 73 C-75.54557827 79.23021426 -79.12620532 93.33224013 -81.63549805 103.90795898 C-82.48388517 108.77723514 -82.4406745 113.7365914 -82.56640625 118.66601562 C-82.74573526 123.76909554 -83.43420119 128.09625798 -85 133 C-85.25055521 134.47260276 -85.46862543 135.95194159 -85.625 137.4375 C-85.74875 138.613125 -85.8725 139.78875 -86 141 C-86.66 141 -87.32 141 -88 141 C-88.433125 139.88625 -88.86625 138.7725 -89.3125 137.625 C-90.69911119 133.82487666 -90.69911119 133.82487666 -94 132 C-94.87890625 128.8828125 -94.87890625 128.8828125 -95.5625 125.125 C-96.61134878 119.32674178 -96.61134878 119.32674178 -99 114 C-100.96259887 114.23682194 -100.96259887 114.23682194 -103 115 C-104.25705073 117.70465682 -105.19418222 120.16909794 -106.0625 123 C-106.44656006 124.21417603 -106.44656006 124.21417603 -106.83837891 125.45288086 C-114.47669646 150.46581827 -113.96240939 175.05298919 -103 199 C-95.96107704 211.01593919 -83.87809035 215.35539553 -71 219 C-66.2763523 219.88315009 -61.7543467 219.55635972 -57 219 C-55.82695313 218.92394531 -54.65390625 218.84789062 -53.4453125 218.76953125 C-42.83589564 217.81625384 -33.68318642 214.24557515 -24 210 C-22.98292969 209.56300781 -21.96585938 209.12601563 -20.91796875 208.67578125 C-15.10436874 205.98777264 -10.58945265 202.44843595 -6 198 C-6.3609375 196.93265625 -6.721875 195.8653125 -7.09375 194.765625 C-9.79961459 186.28115066 -11.52473189 178.24638867 -11.625 169.3125 C-11.64755859 168.4884668 -11.67011719 167.66443359 -11.69335938 166.81542969 C-11.61849025 160.70860463 -9.92448493 157.65331784 -6 153 C0.60047187 154.2724018 4.61945195 159.18912286 8.30859375 164.5234375 C9.36239215 166.13358909 10.40529173 167.75092325 11.4375 169.375 C11.97826172 170.20644531 12.51902344 171.03789063 13.07617188 171.89453125 C14.39392488 173.92363765 15.70145919 175.9585671 17 178 C21.69334934 177.16841747 23.65204218 174.26102746 26.5 170.6875 C27.44624882 169.5233819 28.39413374 168.36059154 29.34375 167.19921875 C30.02147461 166.36934448 30.02147461 166.36934448 30.71289062 165.52270508 C32.36762537 163.56508357 34.15282896 161.77551355 36 160 C36.825 159.154375 37.65 158.30875 38.5 157.4375 C41 155 41 155 43.1875 153.5 C45.48766803 151.59641266 45.9246406 149.75560846 47 147 C47.598125 146.4225 48.19625 145.845 48.8125 145.25 C52.02349836 141.94725883 53.88957573 138.06626333 56 134 C56.36351562 133.31292969 56.72703125 132.62585938 57.1015625 131.91796875 C61.46522849 123.47377539 63.9109077 115.48564258 65 106 C65.10957031 105.05898438 65.21914062 104.11796875 65.33203125 103.1484375 C66.02056161 91.01108838 62.80172367 75.14461627 56 65 C55.27833809 62.68308546 54.59940471 60.35151077 54 58 C53.34 58 52.68 58 52 58 C50.5546875 56.49609375 50.5546875 56.49609375 48.875 54.4375 C41.17773543 45.54393255 34.91388588 41.10321889 23 39 C0.99897934 38.24727691 -20.89985104 44.39854117 -40 55 Z " fill="#32A3FC" transform="translate(1177,367)"/>
<path d="M0 0 C1.24813477 0.01135986 1.24813477 0.01135986 2.52148438 0.02294922 C15.14079261 0.35212767 26.4848601 3.48503975 37.125 10.4375 C37.92550781 10.91574219 38.72601562 11.39398438 39.55078125 11.88671875 C48.79153891 18.05240075 52.68069526 28.27967714 55 38.75 C57.07337383 51.0248819 60.11495185 69.46764446 56.125 81.4375 C55.99609375 82.63503906 55.8671875 83.83257812 55.734375 85.06640625 C55.18642639 89.71441219 53.88393267 93.95753129 52.375 98.375 C52.11058105 99.16116699 51.84616211 99.94733398 51.57373047 100.75732422 C49.62938347 106.37161164 47.29951369 111.39562531 44.125 116.4375 C43.135 116.4375 42.145 116.4375 41.125 116.4375 C41.104375 117.613125 41.08375 118.78875 41.0625 120 C40.40604863 125.4543386 37.14315645 128.01723116 33.125 131.4375 C29.76197344 134.29546173 29.76197344 134.29546173 28.625 138.4375 C28.02388334 142.04419997 26.95705861 143.2061811 24.125 145.4375 C23.465 145.4375 22.805 145.4375 22.125 145.4375 C21.795 144.7775 21.465 144.1175 21.125 143.4375 C19.11568029 145.36608812 17.11772731 147.304398 15.125 149.25 C14.55265625 149.79720703 13.9803125 150.34441406 13.390625 150.90820312 C11.91099462 152.36141154 10.51203342 153.89566374 9.125 155.4375 C9.125 156.4275 9.125 157.4175 9.125 158.4375 C8.60550781 158.67984375 8.08601563 158.9221875 7.55078125 159.171875 C3.2904485 161.2193547 -0.20860968 163.41811973 -3.875 166.4375 C-4.535 166.4375 -5.195 166.4375 -5.875 166.4375 C-6.184375 167.05625 -6.49375 167.675 -6.8125 168.3125 C-7.5 169.6875 -8.1875 171.0625 -8.875 172.4375 C-9.535 172.4375 -10.195 172.4375 -10.875 172.4375 C-11.89038049 173.42187923 -12.88811555 174.42455425 -13.875 175.4375 C-15.09597598 176.28105586 -16.34474657 177.08528136 -17.61328125 177.85546875 C-18.34458252 178.30148437 -19.07588379 178.7475 -19.8293457 179.20703125 C-20.60753662 179.67496094 -21.38572754 180.14289063 -22.1875 180.625 C-23.38669067 181.35203125 -23.38669067 181.35203125 -24.61010742 182.09375 C-30.67173629 185.75305487 -36.78978215 189.30342255 -42.95703125 192.78125 C-44.81380342 193.83516084 -46.64941531 194.92796303 -48.453125 196.0703125 C-50.92247746 197.46430179 -53.06750828 198.14468211 -55.8125 198.8125 C-59.21550468 199.76029982 -61.51868028 200.66936211 -64.125 203.0625 C-66.875 205.4375 -66.875 205.4375 -69.56640625 205.83203125 C-73.77857379 206.60285294 -76.87832495 208.39007186 -80.5625 210.5 C-87.48846154 214.4375 -87.48846154 214.4375 -90.875 214.4375 C-90.875 213.7775 -90.875 213.1175 -90.875 212.4375 C-91.535 212.7675 -92.195 213.0975 -92.875 213.4375 C-93.10663401 228.42097967 -93.10663401 228.42097967 -92.375 243.375 C-91.46948979 253.6927149 -91.79210518 264.08967627 -91.875 274.4375 C-92.535 274.4375 -93.195 274.4375 -93.875 274.4375 C-93.71 275.324375 -93.545 276.21125 -93.375 277.125 C-93.875 280.4375 -93.875 280.4375 -95.41015625 281.80859375 C-97.52264157 283.11515982 -99.67641861 284.28237843 -101.875 285.4375 C-103.12503774 286.22910707 -104.37504086 287.02076883 -105.625 287.8125 C-108.875 289.4375 -108.875 289.4375 -110.89453125 289.23828125 C-115.79813017 287.25556374 -118.19622056 281.94187353 -120.265625 277.35546875 C-125.74465676 262.91524949 -127.36101661 248.73747784 -127.125 233.4375 C-127.11168389 231.90430348 -127.09916207 230.37109987 -127.08740234 228.83789062 C-127.00333648 219.86944639 -126.82093698 210.90060498 -126.5 201.9375 C-126.46938477 201.02097656 -126.43876953 200.10445312 -126.40722656 199.16015625 C-126.16439898 193.75774428 -125.41877511 188.62248486 -124.38769531 183.31738281 C-123.45892989 178.10037473 -122.97735572 172.83149187 -122.4375 167.5625 C-120.26233302 146.35140424 -116.6453996 125.662721 -112.1875 104.8125 C-111.42058333 101.2045002 -110.65565343 97.59610233 -109.89408875 93.98696899 C-109.4245345 91.76373066 -108.95170008 89.54118192 -108.47517395 87.31942749 C-108.15935616 85.82978989 -108.15935616 85.82978989 -107.8371582 84.31005859 C-107.650793 83.43852142 -107.4644278 82.56698425 -107.27241516 81.66903687 C-106.78733419 79.32302004 -106.78733419 79.32302004 -106.875 76.4375 C-109.20102857 78.90284799 -109.85636818 80.12658156 -110.0625 83.56640625 C-110.000625 84.69949219 -109.93875 85.83257812 -109.875 87 C-109.54884733 92.98626038 -109.54884733 92.98626038 -111.25 95.33984375 C-112.875 96.4375 -112.875 96.4375 -114.875 96.4375 C-114.936875 97.18 -114.99875 97.9225 -115.0625 98.6875 C-116.13242693 102.30879113 -117.74385512 103.42462115 -120.875 105.4375 C-121.865 105.4375 -122.855 105.4375 -123.875 105.4375 C-124.205 106.4275 -124.535 107.4175 -124.875 108.4375 C-131.74719992 105.16502385 -134.03812294 99.23861244 -136.875 92.4375 C-138.31134559 87.61175597 -138.17732519 82.74804501 -138.25 77.75 C-138.28738281 76.79416016 -138.32476563 75.83832031 -138.36328125 74.85351562 C-138.48786039 64.70031604 -134.20048889 58.2231633 -127.3125 51.125 C-126.84392578 50.62677734 -126.37535156 50.12855469 -125.89257812 49.61523438 C-124.56595153 48.21068006 -123.22094022 46.82355767 -121.875 45.4375 C-120.85986328 44.36628906 -120.85986328 44.36628906 -119.82421875 43.2734375 C-117.10444828 40.71172984 -114.05466196 38.87891621 -110.8984375 36.90234375 C-108.61918052 35.43152725 -108.61918052 35.43152725 -106.875 32.4375 C-105.27377579 32.0286768 -103.67179971 31.62260035 -102.06640625 31.23046875 C-98.19656708 29.83015262 -94.94154126 27.37536273 -91.52734375 25.11328125 C-89.34154075 23.7322658 -87.32473178 22.64752654 -84.9375 21.6875 C-81.90719398 20.63250269 -81.90719398 20.63250269 -79.9375 18.8125 C-77.39536433 17.11774289 -75.15465871 17.02035659 -72.16015625 16.74609375 C-66.47321427 15.97811355 -57.33368056 14.21687803 -53.4375 9.8125 C-51.875 8.4375 -51.875 8.4375 -49.265625 8.50390625 C-45.22121274 8.42469541 -41.83967358 7.30746587 -38.0625 6 C-32.27596628 4.07934632 -26.98500733 2.86627244 -20.875 2.4375 C-20.545 2.1075 -20.215 1.7775 -19.875 1.4375 C-18.20882885 1.39686168 -16.54111905 1.394779 -14.875 1.4375 C-14.875 2.0975 -14.875 2.7575 -14.875 3.4375 C-14.06804687 2.95152344 -13.26109375 2.46554687 -12.4296875 1.96484375 C-8.08559292 0.0983152 -4.67046899 -0.0597562 0 0 Z M-22.1875 42.375 C-26.35814403 42.97333894 -30.48469759 43.49133844 -34.68359375 43.8359375 C-40.16630456 44.37184156 -45.32849235 45.64353483 -50.625 47.125 C-51.58003418 47.39046631 -52.53506836 47.65593262 -53.51904297 47.92944336 C-68.63434423 51.70782713 -68.63434423 51.70782713 -79.875 61.4375 C-80.1823118 64.04631846 -80.1823118 64.04631846 -79.6875 66.625 C-79.57019531 67.48480469 -79.45289063 68.34460938 -79.33203125 69.23046875 C-78.96742174 71.46645061 -78.96742174 71.46645061 -77.875 73.4375 C-78.00731981 83.72341963 -79.62943843 94.01767595 -81.03173828 104.19189453 C-81.3801299 106.72479578 -81.71976111 109.25877282 -82.05859375 111.79296875 C-82.27813567 113.40892356 -82.4981688 115.02481173 -82.71875 116.640625 C-82.81982056 117.3957135 -82.92089111 118.150802 -83.02502441 118.92877197 C-83.75972165 124.20694329 -83.75972165 124.20694329 -84.875 126.4375 C-85.24275824 129.26507338 -85.56315949 132.08178782 -85.84765625 134.91796875 C-85.93502548 135.76418289 -86.02239471 136.61039703 -86.1124115 137.48225403 C-86.2966707 139.27679143 -86.47895304 141.07153273 -86.65942383 142.86645508 C-86.93468957 145.59712023 -87.21784506 148.32688298 -87.50195312 151.05664062 C-87.6801654 152.8020346 -87.85791442 154.54747596 -88.03515625 156.29296875 C-88.11951431 157.10364304 -88.20387238 157.91431732 -88.29078674 158.7495575 C-88.74665132 163.33947437 -88.95767521 167.8249923 -88.875 172.4375 C-88.194375 171.73625 -87.51375 171.035 -86.8125 170.3125 C-72.2159686 155.75685524 -54.34247692 145.4882673 -36.42114258 135.6105957 C-29.91413718 131.98408262 -23.91756701 127.78940059 -17.875 123.4375 C-16.94171875 122.80328125 -16.0084375 122.1690625 -15.046875 121.515625 C3.42248863 108.74537929 18.66875808 90.11202645 25.125 68.4375 C25.92124719 62.53045691 25.45430642 57.33678035 22.4453125 52.12890625 C19.56842466 48.44342567 16.21920749 46.82766286 11.671875 45.98046875 C9.48622372 45.72272685 7.32300014 45.53718255 5.125 45.4375 C5.125 44.7775 5.125 44.1175 5.125 43.4375 C3.10530444 43.09734075 1.08417203 42.76570831 -0.9375 42.4375 C-2.62552734 42.1590625 -2.62552734 42.1590625 -4.34765625 41.875 C-10.45733785 41.11721003 -16.11114979 41.49595039 -22.1875 42.375 Z " fill="#32A3FC" transform="translate(1514.875,352.5625)"/>
<path d="M0 0 C0.83354004 0.00829834 1.66708008 0.01659668 2.52587891 0.02514648 C18.25093014 0.44525862 33.89064781 5.46555484 45.484375 16.5234375 C56.22077433 29.04923672 56.86597544 47.76651407 57.125 63.4375 C57.14014648 64.18112793 57.15529297 64.92475586 57.17089844 65.69091797 C57.39036961 77.64139116 57.39036961 77.64139116 56.125 81.4375 C56.0425 82.675 55.96 83.9125 55.875 85.1875 C54.7501228 95.81326312 50.17727498 110.41411416 42.48828125 118.06640625 C40.87887573 119.45315963 40.87887573 119.45315963 40.4375 122.125 C38.42132671 127.21343734 34.08388411 131.95805795 29.125 134.4375 C29.455 135.0975 29.785 135.7575 30.125 136.4375 C29.48828125 138.34765625 29.48828125 138.34765625 28.4375 140.5 C28.10363281 141.21285156 27.76976562 141.92570313 27.42578125 142.66015625 C26.125 144.4375 26.125 144.4375 23.98046875 145.18359375 C23.36816406 145.26738281 22.75585938 145.35117187 22.125 145.4375 C22.455 144.4475 22.785 143.4575 23.125 142.4375 C14.83811592 148.53665102 14.83811592 148.53665102 9.625 156.625 C9.46 157.223125 9.295 157.82125 9.125 158.4375 C7.47295544 159.13961894 5.80576231 159.80721413 4.125 160.4375 C3.795 161.4275 3.465 162.4175 3.125 163.4375 C2.135 163.4375 1.145 163.4375 0.125 163.4375 C-1.22289347 164.41778616 -2.55712715 165.41721135 -3.875 166.4375 C-4.535 166.4375 -5.195 166.4375 -5.875 166.4375 C-6.184375 167.05625 -6.49375 167.675 -6.8125 168.3125 C-7.5 169.6875 -8.1875 171.0625 -8.875 172.4375 C-9.535 172.4375 -10.195 172.4375 -10.875 172.4375 C-11.89038049 173.42187923 -12.88811555 174.42455425 -13.875 175.4375 C-15.09597598 176.28105586 -16.34474657 177.08528136 -17.61328125 177.85546875 C-18.34458252 178.30148437 -19.07588379 178.7475 -19.8293457 179.20703125 C-20.60753662 179.67496094 -21.38572754 180.14289063 -22.1875 180.625 C-23.38669067 181.35203125 -23.38669067 181.35203125 -24.61010742 182.09375 C-30.67173629 185.75305487 -36.78978215 189.30342255 -42.95703125 192.78125 C-44.81380342 193.83516084 -46.64941531 194.92796303 -48.453125 196.0703125 C-50.92247746 197.46430179 -53.06750828 198.14468211 -55.8125 198.8125 C-59.21550468 199.76029982 -61.51868028 200.66936211 -64.125 203.0625 C-66.875 205.4375 -66.875 205.4375 -69.56640625 205.83203125 C-73.77857379 206.60285294 -76.87832495 208.39007186 -80.5625 210.5 C-87.48846154 214.4375 -87.48846154 214.4375 -90.875 214.4375 C-90.875 213.7775 -90.875 213.1175 -90.875 212.4375 C-91.535 212.4375 -92.195 212.4375 -92.875 212.4375 C-93.09661917 226.82713049 -93.09661917 226.82713049 -92.375 241.1875 C-91.41193134 252.22887867 -91.79382153 263.36475687 -91.875 274.4375 C-92.535 274.4375 -93.195 274.4375 -93.875 274.4375 C-93.545 276.4175 -93.215 278.3975 -92.875 280.4375 C-93.65875 280.80875 -94.4425 281.18 -95.25 281.5625 C-99.19871179 283.49924912 -102.83141244 285.92300347 -106.5078125 288.328125 C-108.875 289.4375 -108.875 289.4375 -110.99609375 289.30859375 C-116.7889577 286.62292086 -119.40201039 279.66545649 -121.5625 274.0625 C-127.34845617 256.36867273 -127.30621952 238.91870098 -126.875 220.4375 C-126.85421387 219.3438916 -126.83342773 218.2502832 -126.81201172 217.12353516 C-126.51364039 202.64921035 -125.20679694 188.49101167 -123.23486328 174.15478516 C-122.70754052 170.17303323 -122.29208937 166.18198395 -121.875 162.1875 C-119.35730558 139.30855173 -114.61186095 116.94137834 -109.875 94.4375 C-112.38236938 95.2611862 -112.38236938 95.2611862 -114.875 96.4375 C-115.26671753 98.09141846 -115.59557545 99.76095271 -115.875 101.4375 C-117.6875 103.75 -117.6875 103.75 -119.875 105.4375 C-121.195 105.4375 -122.515 105.4375 -123.875 105.4375 C-124.205 106.4275 -124.535 107.4175 -124.875 108.4375 C-130.64443514 105.35152306 -133.38617603 101.46117542 -135.875 95.4375 C-138.8829237 85.4955206 -140.44274393 71.74301325 -136.125 62 C-130.53144901 53.0376058 -122.32706671 45.03486502 -113.828125 38.859375 C-112.03304415 37.55255614 -110.40304312 36.16653858 -108.75 34.6875 C-106.16120155 32.66148382 -103.90284245 31.49473989 -100.859375 30.31640625 C-98.39060844 29.22295649 -96.17272717 27.85443175 -93.875 26.4375 C-89.95954538 24.02982318 -86.12263245 22.17122753 -81.875 20.4375 C-80.885 19.7775 -79.895 19.1175 -78.875 18.4375 C-77.17477059 17.92557663 -75.45503061 17.47681415 -73.7265625 17.0703125 C-72.72109375 16.82410156 -71.715625 16.57789063 -70.6796875 16.32421875 C-68.56904682 15.81859844 -66.45706413 15.31854594 -64.34375 14.82421875 C-58.77947817 13.45093938 -55.29732406 12.17225424 -50.875 8.4375 C-48.55524802 8.01999994 -46.21784528 7.69563091 -43.875 7.4375 C-40.2426837 6.49080222 -36.67689706 5.31290993 -33.10351562 4.16601562 C-28.8640109 2.85714963 -25.36046762 2.2785389 -20.875 2.4375 C-20.545 2.1075 -20.215 1.7775 -19.875 1.4375 C-18.20882885 1.39686168 -16.54111905 1.394779 -14.875 1.4375 C-14.875 2.0975 -14.875 2.7575 -14.875 3.4375 C-14.06804687 2.95152344 -13.26109375 2.46554687 -12.4296875 1.96484375 C-8.08581441 0.09841037 -4.670315 -0.06021624 0 0 Z M-26.1796875 42.8671875 C-29.02736429 43.30668096 -31.79102388 43.60987231 -34.65625 43.84765625 C-40.09501574 44.37435344 -45.23594269 45.56080034 -50.5 47 C-51.44842773 47.25885986 -52.39685547 47.51771973 -53.37402344 47.78442383 C-68.34174535 51.94988545 -68.34174535 51.94988545 -79.875 61.4375 C-79.93782845 63.92807298 -79.93782845 63.92807298 -79.5625 66.5625 C-79.46324219 67.45195312 -79.36398438 68.34140625 -79.26171875 69.2578125 C-79.09471516 71.40868765 -79.09471516 71.40868765 -77.875 72.4375 C-77.64734379 78.85153527 -78.18896803 84.92734239 -79.1171875 91.265625 C-79.30983688 92.63192047 -79.30983688 92.63192047 -79.50637817 94.02581787 C-79.9151096 96.91390651 -80.33248128 99.80067011 -80.75 102.6875 C-81.02268881 104.60799442 -81.29482862 106.52856688 -81.56640625 108.44921875 C-82.65035221 116.08396139 -83.74917735 123.71368864 -84.96875 131.328125 C-86.08612251 138.50307798 -86.79751303 145.71191974 -87.5 152.9375 C-87.63515736 154.28127611 -87.77057304 155.62502626 -87.90625 156.96875 C-88.69173682 164.68805441 -88.69173682 164.68805441 -88.875 172.4375 C-88.18664062 171.72722656 -87.49828125 171.01695312 -86.7890625 170.28515625 C-72.59931077 156.1302077 -54.85984941 146.23659827 -37.59667969 136.37744141 C-30.73082965 132.42563586 -24.29726859 128.07292773 -17.875 123.4375 C-16.9571875 122.81746094 -16.039375 122.19742188 -15.09375 121.55859375 C2.72774813 109.29351099 19.47889938 90.72265775 25.125 69.4375 C26.17881244 63.30181571 26.04611735 58.35729001 22.9375 52.875 C18.98649217 47.55929866 14.72963622 46.13377958 8.40625 44.96484375 C6.125 44.4375 6.125 44.4375 3.8046875 43.42578125 C-5.45161627 40.01201324 -16.65068764 41.32605085 -26.1796875 42.8671875 Z M-106.875 76.4375 C-109.041484 77.97530456 -109.041484 77.97530456 -110.875 80.4375 C-111.14216143 83.95383563 -111.14216143 83.95383563 -110.625 87.6875 C-110.49609375 88.95078125 -110.3671875 90.2140625 -110.234375 91.515625 C-110.11578125 92.47984375 -109.9971875 93.4440625 -109.875 94.4375 C-108.25022189 91.47587914 -107.35804114 88.74483073 -106.6875 85.4375 C-106.50832031 84.591875 -106.32914063 83.74625 -106.14453125 82.875 C-105.87165902 80.40728589 -106.11075881 78.77900494 -106.875 76.4375 Z " fill="#32A3FC" transform="translate(278.875,352.5625)"/>
<path d="M0 0 C4.13380269 1.24014081 6.18693918 4.22374879 8.5 7.75 C12.34962885 15.49384799 12.6950932 23.69859287 13.10546875 32.1796875 C13.25061006 36.09315481 13.25061006 36.09315481 14.5 39.75 C14.59534064 41.21783564 14.62795055 42.68996066 14.62939453 44.16088867 C14.6324913 45.09899384 14.63558807 46.037099 14.63877869 47.00363159 C14.63680984 48.04786285 14.634841 49.09209412 14.6328125 50.16796875 C14.63426773 51.28358185 14.63572296 52.39919495 14.63722229 53.5486145 C14.63952138 57.34494081 14.63304088 61.14118207 14.625 64.9375 C14.62311676 66.25301849 14.62123352 67.56853699 14.61929321 68.92391968 C14.60389021 78.95112093 14.56203933 88.97814609 14.51314545 99.00523376 C14.49942342 101.8703892 14.4866291 104.73554783 14.47393799 107.60070801 C14.41643206 120.29265041 14.33653359 132.98426339 14.23553467 145.67593384 C14.20223531 149.91580832 14.17540309 154.15564798 14.15411377 158.39559937 C14.12813065 163.4703466 14.08765282 168.54479206 14.03693962 173.61935043 C14.02044869 175.49523145 14.00872112 177.37116196 14.00235176 179.24710464 C13.95808671 191.06394397 12.95587017 202.18200546 10.5 213.75 C8.19 213.75 5.88 213.75 3.5 213.75 C3.0359375 214.7090625 3.0359375 214.7090625 2.5625 215.6875 C1.5 217.75 1.5 217.75 0.5 218.75 C-3.29481197 218.90811717 -6.75630935 218.71978292 -10.5 218.12109375 C-16.35445713 217.45037035 -21.75836331 218.57586733 -27.5 219.6875 C-39.04780938 221.87984727 -39.04780938 221.87984727 -44.15234375 221.59765625 C-49.50377488 221.45816397 -53.46342072 223.72902321 -58.0625 226.25 C-59.28936523 226.89388672 -59.28936523 226.89388672 -60.54101562 227.55078125 C-62.53664878 228.60111449 -64.52179154 229.6673124 -66.5 230.75 C-66.5 231.08 -66.5 231.41 -66.5 231.75 C-44.70377561 233.22771013 -24.46074266 232.79387622 -3.09179688 227.74609375 C11.70764631 224.45032004 11.70764631 224.45032004 18.5 226.75 C20.27659652 229.3149675 20.5 230.58813963 20.5 233.75 C21.93750191 235.43798827 21.93750191 235.43798827 23.5 236.75 C22.675 237.74 21.85 238.73 21 239.75 C18.89396146 242.63995289 18.22893572 244.31050469 18.5 247.875 C18.5 251.75 18.5 251.75 16.625 254.1875 C15.58895624 255.0484782 14.54630226 255.90151799 13.5 256.75 C12.84128906 257.39453125 12.18257812 258.0390625 11.50390625 258.703125 C6.47769939 263.55133803 1.14351918 267.48588047 -4.75 271.1875 C-5.42329346 271.61248779 -6.09658691 272.03747559 -6.7902832 272.4753418 C-10.61315157 274.81366531 -14.15148949 276.54843788 -18.5 277.75 C-19.34296631 277.99532471 -20.18593262 278.24064941 -21.05444336 278.4934082 C-28.79609895 280.6172026 -36.31535622 281.42005931 -44.3125 281.875 C-46.65247657 282.02132876 -48.99232619 282.16970472 -51.33203125 282.3203125 C-52.41226562 282.38943848 -53.4925 282.45856445 -54.60546875 282.52978516 C-57.94278995 282.78368729 -61.19429352 283.23549316 -64.5 283.75 C-79.40943911 285.25383392 -94.97924084 279.65177028 -107.5 271.75 C-114.69881275 265.85323338 -119.73438868 256.08220071 -120.703125 246.8046875 C-121.00585903 232.72755531 -119.04095863 218.81410466 -109.19140625 208.28125 C-88.67555123 188.52749955 -50.37624615 168.75 -21.5 168.75 C-21.48018066 167.53723389 -21.46036133 166.32446777 -21.43994141 165.07495117 C-21.2029058 150.81384759 -20.92526238 136.55369195 -20.63222027 122.29363918 C-20.53968324 117.76715974 -20.45183141 113.24060949 -20.36642456 108.71399021 C-20.21069516 100.46689114 -20.041386 92.22023632 -19.85255432 83.9738245 C-19.75957425 79.89854654 -19.67218468 75.82334796 -19.59967041 71.74765015 C-19.32309425 56.45092945 -18.9519254 41.24551432 -16.80078125 26.07421875 C-16.66512253 25.04698196 -16.52946381 24.01974518 -16.38969421 22.96138 C-15.05640491 14.73217227 -11.59446406 8.35573297 -5.4375 2.6875 C-2.5 0.75 -2.5 0.75 0 0 Z " fill="#32A3FC" transform="translate(1969.5,351.25)"/>
<path d="M0 0 C2.07778994 1.26694509 4.02711783 2.58158798 6 4 C6.93392578 4.60714844 6.93392578 4.60714844 7.88671875 5.2265625 C11.93990189 8.40452999 13.39615733 11.42189195 14.07479382 16.54534912 C14.14848344 17.25354797 14.22217306 17.96174683 14.2980957 18.69140625 C14.37962796 19.44029114 14.46116022 20.18917603 14.54516315 20.96075439 C15.30443587 29.1870843 14.4887461 37.08371935 13.48046875 45.25 C13.2988249 46.84386927 13.11904252 48.43795163 12.94099426 50.03222656 C12.47304915 54.18354189 11.98307973 58.33193024 11.48712158 62.47998047 C10.69845941 69.11316113 9.94701484 75.75069907 9.19021034 82.38757324 C8.92738495 84.6682892 8.65676352 86.94795425 8.38432312 89.22753906 C7.21681764 99.14016763 6.48469379 109.03105552 6 119 C6.71127548 118.93896088 7.42255096 118.87792175 8.15538025 118.81503296 C14.62589093 118.26126294 21.09882655 117.74810519 27.57470703 117.26123047 C29.74552303 117.09567287 31.91586138 116.92361783 34.08544922 116.74267578 C48.74419165 115.540172 64.02860179 114.94956435 76.5078125 124.2265625 C78.79654832 126.94668308 78.80473295 129.41297733 78.828125 132.875 C79.08816956 136.09009641 80.7854872 137.7854872 83 140 C81.68 140 80.36 140 79 140 C78.67 141.65 78.34 143.3 78 145 C77.01 145.33 76.02 145.66 75 146 C73.94978897 147.84971696 73.94978897 147.84971696 73 150 C71.7734375 152.09765625 71.7734375 152.09765625 70 154 C67.4765625 154.5390625 67.4765625 154.5390625 64.625 154.625 C60.55853909 154.77063083 57.74743258 155.46287945 54 157 C51.5529065 157.55239131 49.09240874 158.04690299 46.625 158.5 C45.92528076 158.62890625 45.22556152 158.7578125 44.50463867 158.890625 C39.78878382 159.7385144 35.06813595 160.40739739 30.3125 161 C16.27527199 162.6232902 16.27527199 162.6232902 4 169 C3.34 169 2.68 169 2 169 C1.34263894 174.87376544 0.69738545 180.74876206 0.0625 186.625 C-0.07863724 187.93085556 -0.07863724 187.93085556 -0.22262573 189.26309204 C-1.29138346 199.23528275 -2.2611373 209.15709802 -2.5625 219.1875 C-3.53588875 245.05536783 -3.53588875 245.05536783 -8.50390625 250.9921875 C-15.16381173 256.11792035 -15.16381173 256.11792035 -19.12890625 255.86328125 C-23.25312985 253.96045575 -25.67050571 250.82470457 -28 247 C-34.3488059 229.32218715 -34.06345089 209.38807022 -32.22265625 190.90234375 C-31.81651506 185.60825772 -31.9229805 180.30578787 -32 175 C-37.66991084 175.97271608 -43.08593278 177.29066943 -48.5625 179.0625 C-52.93446151 180.45034359 -56.8577896 181.34971161 -61.41796875 181.62890625 C-63.70492321 181.95759108 -65.6657909 182.46901961 -67.86328125 183.15234375 C-78.47597336 186.41249992 -78.47597336 186.41249992 -82.41015625 185.34765625 C-88.26140305 180.91099659 -90.99957418 172.5352637 -92.52734375 165.609375 C-92.81833658 163.39304605 -92.93879091 161.2341318 -93 159 C-93.061875 158.1028125 -93.12375 157.205625 -93.1875 156.28125 C-93.46740416 149.91343029 -92.64194496 145.30341621 -89 140 C-86.10873095 137.10873095 -82.97629103 137.47410546 -79.08203125 137.2109375 C-77.4159114 137.0728666 -75.74989897 136.93349461 -74.08398438 136.79296875 C-71.48591422 136.58250315 -68.88837874 136.38018039 -66.2878418 136.20263672 C-51.56112321 135.17034306 -38.72721699 131.36961244 -25 126 C-24.9189653 125.12320084 -24.8379306 124.24640167 -24.75444031 123.34303284 C-23.98243293 115.00360677 -23.20357565 106.66485323 -22.41737652 98.32675266 C-22.01359944 94.04197838 -21.61230192 89.7570045 -21.21704102 85.47143555 C-20.83415411 81.32109602 -20.44427143 77.17146359 -20.04990578 73.02219963 C-19.90201852 71.4539323 -19.7564838 69.88544094 -19.61356163 68.31671333 C-18.22934423 53.15642523 -15.78911499 38.30333213 -12.1875 23.5 C-11.96513672 22.50742187 -11.74277344 21.51484375 -11.51367188 20.4921875 C-9.52515337 12.32255591 -6.12036859 5.83477415 0 0 Z " fill="#32A3FC" transform="translate(2338,382)"/>
<path d="M0 0 C5.24208361 2.6210418 9.74719706 6.11350231 13 11 C17.14456114 25.06540039 14.01956305 40.57352287 12.40625 54.83984375 C12.2528006 56.21875881 12.09969147 57.59771178 11.94689941 58.97669983 C11.38696664 64.02427507 10.82162884 69.07124071 10.25531006 74.11810303 C9.77426927 78.40584967 9.29594355 82.69388219 8.82121277 86.98233223 C8.60170854 88.95579222 8.37837967 90.92882564 8.15490723 92.90184021 C7.19174949 101.59439547 6.5155778 110.27119633 6 119 C6.70579193 118.93896088 7.41158386 118.87792175 8.13876343 118.81503296 C14.59733858 118.25822015 21.05847739 117.74471299 27.52294922 117.26123047 C29.74896385 117.09399022 31.97460278 116.92162129 34.19970703 116.74267578 C48.91058396 115.59261682 63.77542118 114.8546759 76.390625 124.0078125 C79.61298635 127.99665786 79.75081929 133.03246201 80 138 C80.99 138.33 81.98 138.66 83 139 C81.68 139.33 80.36 139.66 79 140 C78.67 141.65 78.34 143.3 78 145 C77.01 145.33 76.02 145.66 75 146 C74.30341637 147.65438613 73.63903117 149.32254318 73 151 C71.28187579 153.27057572 70.29779036 153.9298497 67.49609375 154.58984375 C66.48675781 154.70457031 65.47742188 154.81929687 64.4375 154.9375 C58.92040097 155.66698309 53.59581619 156.72585308 48.1875 158 C42.40592357 159.34626917 36.7149587 160.37254187 30.8125 161 C16.51565242 162.59418418 16.51565242 162.59418418 4 169 C3.34 169 2.68 169 2 169 C1.81824219 170.94326172 1.81824219 170.94326172 1.6328125 172.92578125 C1.46370973 174.72137 1.29442465 176.51694159 1.125 178.3125 C1.03549072 179.26511719 0.94598145 180.21773437 0.85375977 181.19921875 C0.42035017 185.76572827 -0.02649758 190.32879009 -0.54296875 194.88671875 C-1.36998382 202.20807581 -2.06988523 209.47327518 -2.33911133 216.83935547 C-2.50146938 221.22987185 -2.73315949 225.61467607 -3 230 C-3.05140137 230.87881836 -3.10280273 231.75763672 -3.15576172 232.66308594 C-4.14957258 246.92440356 -4.14957258 246.92440356 -8.50390625 251.80859375 C-11.36442884 253.76258588 -13.63643375 255.1652107 -17 256 C-19.16015625 255.25 -19.16015625 255.25 -21 254 C-21.99 253.401875 -22.98 252.80375 -24 252.1875 C-32.58637057 244.62021886 -32.18655332 228.26943833 -32.87304688 217.68994141 C-33.34626393 207.6632001 -32.74373384 197.75020505 -32 187.75 C-31.90325487 186.4075802 -31.80689859 185.06513232 -31.7109375 183.72265625 C-31.47775902 180.48147538 -31.24071047 177.24062869 -31 174 C-32.01984985 174.31022095 -32.01984985 174.31022095 -33.06030273 174.62670898 C-36.18364528 175.57175298 -39.31048326 176.50468882 -42.4375 177.4375 C-43.50677734 177.76298828 -44.57605469 178.08847656 -45.67773438 178.42382812 C-51.14623754 180.0459835 -56.28637052 181.27463614 -61.96899414 181.73803711 C-64.07252044 182.00935382 -65.8515556 182.53525373 -67.84375 183.25390625 C-77.35734603 186.65887919 -77.35734603 186.65887919 -81.82421875 184.8671875 C-88.90548188 179.08513132 -91.4861731 171.66102881 -92.55859375 162.83203125 C-94.06494599 147.25150539 -94.06494599 147.25150539 -90 141 C-86.48643772 137.54365299 -82.79668406 137.4113388 -78.10546875 137.11328125 C-76.49145606 136.97817058 -74.87752633 136.84206595 -73.26367188 136.70507812 C-70.75997571 136.50681565 -68.25654816 136.31716962 -65.75073242 136.14770508 C-51.22065354 135.13049681 -38.54791937 131.27763214 -25 126 C-24.91754028 125.0732547 -24.83508057 124.1465094 -24.75012207 123.19168091 C-23.95405772 114.28182841 -23.13141055 105.37474081 -22.28528595 96.46949959 C-21.85149009 91.89557661 -21.42582666 87.32125725 -21.02148438 82.74462891 C-19.35246897 63.92438056 -17.36034968 45.36163166 -13.09375 26.9296875 C-12.93568375 26.22613255 -12.77761749 25.52257759 -12.61476135 24.79770279 C-10.38074763 15.02455303 -7.34253487 7.05579687 0 0 Z " fill="#32A3FC" transform="translate(852,382)"/>
<path d="M0 0 C13.24027237 9.93020428 13.24027237 9.93020428 15.75 17.0625 C17.90358575 19.83949215 19.94422537 22.41136899 22.68359375 24.625 C25.79599427 28.29633823 26.9453902 32.47165804 28.4375 37 C28.74494141 37.89396484 29.05238281 38.78792969 29.36914062 39.70898438 C33.97891781 53.29622697 35.60672999 69.10070651 31.75 83.0625 C31.55019531 84.0009375 31.35039062 84.939375 31.14453125 85.90625 C26.87775927 103.05997287 16.19669399 117.06228287 2.75 128.0625 C1.47794647 129.33211197 0.20693758 130.60277245 -1.0625 131.875 C-9.70181232 139.39303987 -24.94568379 144.9542337 -36.25 146.0625 C-37.03117187 146.16175781 -37.81234375 146.26101563 -38.6171875 146.36328125 C-49.48080911 147.13065618 -61.41002789 143.29091608 -70.22265625 136.91015625 C-72.44496902 134.74120948 -74.350481 132.51604537 -76.25 130.0625 C-76.8790625 129.37542969 -77.508125 128.68835938 -78.15625 127.98046875 C-86.11609449 118.89073108 -88.98997512 106.8372153 -90.25 95.0625 C-90.43369141 93.41314453 -90.43369141 93.41314453 -90.62109375 91.73046875 C-92.29267758 71.69209965 -92.05336386 50.23889441 -88.0625 30.5 C-87.87864746 29.562771 -87.69479492 28.62554199 -87.50537109 27.65991211 C-84.97675139 16.63282594 -77.87670625 8.15805925 -69.25 1.0625 C-65.70706851 -1.00968532 -62.08904197 -2.50469516 -58.25 -3.9375 C-57.34507812 -4.31648438 -56.44015625 -4.69546875 -55.5078125 -5.0859375 C-37.42948091 -12.64986852 -16.21884766 -10.93829261 0 0 Z M-46.125 38.0625 C-47.01171387 38.32353516 -47.89842773 38.58457031 -48.81201172 38.85351562 C-52.07514665 39.83890933 -52.07514665 39.83890933 -55.25 41.0625 C-56.52876129 43.62002258 -56.31298207 45.396125 -56.25 48.25 C-56.22101338 52.67335793 -56.26049377 56.74465463 -57.25 61.0625 C-57.70246094 61.47886719 -58.15492188 61.89523437 -58.62109375 62.32421875 C-60.99779449 64.86050611 -61.82238486 67.62270406 -63 70.875 C-63.44859375 72.07769531 -63.8971875 73.28039062 -64.359375 74.51953125 C-65.30993916 78.30094217 -65.42808119 80.36363374 -64.25 84.0625 C-59.02373978 90.48954211 -51.77773631 95.5342641 -43.5 96.5 C-42.07926075 96.40145161 -40.66161683 96.25104636 -39.25 96.0625 C-38.42371094 95.96453125 -37.59742187 95.8665625 -36.74609375 95.765625 C-21.12640664 92.89803293 -2.48295645 81.049183 6.75 68.0625 C9.27263063 63.68935832 9.5793208 60.01640745 8.75 55.0625 C6.22253268 48.05574897 2.70317218 40.57142643 -4.25 37.0625 C-7.10945818 37.01199548 -7.10945818 37.01199548 -9.25 38.0625 C-9.745 36.5775 -9.745 36.5775 -10.25 35.0625 C-22.50380722 31.31427662 -34.22046608 34.55504681 -46.125 38.0625 Z " fill="#32A3FC" transform="translate(2560.25,490.9375)"/>
<path d="M0 0 C2.85532582 1.97553355 5.50790491 4.06892895 8.1640625 6.3046875 C9.67806641 7.57505859 9.67806641 7.57505859 11.22265625 8.87109375 C19.05851536 15.70836483 19.05851536 15.70836483 21.1640625 21.3046875 C22.63668187 22.73102168 22.63668187 22.73102168 24.3515625 23.9921875 C33.73570633 32.84626463 37.4511538 50.95840495 38.1640625 63.3046875 C38.28007813 65.08746094 38.28007813 65.08746094 38.3984375 66.90625 C39.08741167 86.31235583 31.37006939 107.00071406 18.21801758 121.44140625 C16.11782231 123.5304946 13.97103778 125.55130807 11.7890625 127.5546875 C11.07234375 128.2353125 10.355625 128.9159375 9.6171875 129.6171875 C-3.52359325 141.85661506 -21.93293245 150.30970637 -40.12890625 149.84765625 C-44.8729049 149.15280292 -49.19764528 147.83490949 -53.7109375 146.2421875 C-54.90601929 145.83057373 -54.90601929 145.83057373 -56.12524414 145.41064453 C-62.00989032 143.15800074 -65.73623152 140.03919935 -69.8359375 135.3046875 C-70.65320312 134.37527344 -71.47046875 133.44585938 -72.3125 132.48828125 C-86.93073581 113.80351802 -86.23108628 92.84683653 -85.8359375 70.3046875 C-85.82191895 69.14372559 -85.80790039 67.98276367 -85.79345703 66.78662109 C-85.23286974 25.34361643 -85.23286974 25.34361643 -70.1484375 8.9921875 C-65.1351368 4.21761541 -60.28997605 1.65466252 -53.8359375 -0.6953125 C-52.24072266 -1.39140625 -52.24072266 -1.39140625 -50.61328125 -2.1015625 C-35.04544677 -8.30800814 -14.66104745 -8.76431762 0 0 Z M-41.7734375 41.3046875 C-43.09734497 41.69636108 -43.09734497 41.69636108 -44.44799805 42.09594727 C-47.68683943 43.08019229 -47.68683943 43.08019229 -50.8359375 44.3046875 C-52.20691312 47.04663874 -51.89468268 49.24993822 -51.8359375 52.3046875 C-51.72482639 58.08246528 -51.72482639 58.08246528 -52.8359375 60.3046875 C-52.990625 61.3565625 -52.990625 61.3565625 -53.1484375 62.4296875 C-53.76309307 65.00006532 -54.4885233 66.69144594 -55.7109375 68.9921875 C-60.1011688 77.42354422 -60.1011688 77.42354422 -59.9609375 86.5546875 C-55.16600901 92.75988907 -48.68334167 98.21317206 -40.78515625 99.6875 C-29.21537528 100.32204009 -19.25602645 94.72143443 -9.5859375 89.1171875 C-8.66337158 88.58907471 -7.74080566 88.06096191 -6.7902832 87.5168457 C3.04019849 81.6252627 10.78538293 74.83717279 14.2890625 63.7421875 C14.91476495 57.2473961 10.65514339 51.45436621 7.1640625 46.3046875 C3.64570363 42.25189437 0.60116484 39.90880998 -4.8359375 39.3046875 C-5.8259375 38.6446875 -6.8159375 37.9846875 -7.8359375 37.3046875 C-19.28737743 34.97019613 -30.79625744 38.04449947 -41.7734375 41.3046875 Z " fill="#32A3FC" transform="translate(1798.8359375,487.6953125)"/>
<path d="M0 0 C1.4296875 1.375 1.4296875 1.375 1.9296875 4.1875 C1.7646875 4.909375 1.5996875 5.63125 1.4296875 6.375 C2.0484375 6.478125 2.6671875 6.58125 3.3046875 6.6875 C5.4296875 7.375 5.4296875 7.375 7.4296875 10.375 C12.72939091 27.38639368 9.97329532 47.50585815 2.36328125 63.23828125 C-0.45704669 67.81347991 -3.97683216 71.22674993 -7.875 74.859375 C-10.89259248 77.67579465 -13.56020821 80.6760754 -16.23046875 83.81640625 C-17.29095386 85.05003179 -18.41999501 86.22468251 -19.5703125 87.375 C-10.21141201 91.90350024 1.86496391 90.6548986 12.0078125 90.8046875 C13.17570313 90.835625 14.34359375 90.8665625 15.546875 90.8984375 C16.60503418 90.91825684 17.66319336 90.93807617 18.75341797 90.95849609 C21.79829988 91.4323666 22.58047331 91.98386036 24.4296875 94.375 C25.1721875 95.303125 25.9146875 96.23125 26.6796875 97.1875 C28.4296875 100.375 28.4296875 100.375 28.3046875 103.4375 C28.0159375 104.406875 27.7271875 105.37625 27.4296875 106.375 C27.0275 107.7671875 27.0275 107.7671875 26.6171875 109.1875 C25.4296875 111.375 25.4296875 111.375 23.3046875 112.1875 C22.3765625 112.2803125 22.3765625 112.2803125 21.4296875 112.375 C22.7496875 113.365 24.0696875 114.355 25.4296875 115.375 C23.37372517 120.421453 20.50873501 123.49842862 15.5390625 125.59375 C13.42977253 126.38855492 11.30732395 127.14951437 9.171875 127.87109375 C6.14978732 129.15152759 6.14978732 129.15152759 5.21875 132.38671875 C3.4296875 135.375 3.4296875 135.375 1.31982422 136.23510742 C-1.46886656 136.87734661 -4.23799669 137.34163701 -7.0703125 137.75 C-8.01390625 137.91371094 -8.9575 138.07742188 -9.9296875 138.24609375 C-28.15035913 141.20819747 -43.76321225 137.59415984 -59.5703125 128.375 C-60.42496094 127.89804687 -61.27960937 127.42109375 -62.16015625 126.9296875 C-74.67311316 118.75883358 -79.92756388 98.67295392 -82.8828125 84.875 C-86.34499565 62.11870879 -78.80636821 38.40325651 -65.5078125 19.83203125 C-60.66883882 13.69551019 -56.89218365 10.32943923 -49.5703125 7.375 C-48.34013865 6.44486855 -47.13314215 5.48363252 -45.9453125 4.5 C-33.15024048 -5.42976632 -13.9496198 -9.41179168 0 0 Z M-35.81640625 43.515625 C-38.40216609 46.28806621 -38.40216609 46.28806621 -40.5703125 49.375 C-40.2403125 50.365 -39.9103125 51.355 -39.5703125 52.375 C-27.99121191 45.20791343 -27.99121191 45.20791343 -20.5703125 34.375 C-26.52882054 34.375 -31.6580479 39.5525287 -35.81640625 43.515625 Z " fill="#32A3FC" transform="translate(719.5703125,497.625)"/>
<path d="M0 0 C6.43327049 5.47736105 11.78035356 11.23228692 14.44140625 19.36328125 C14.2257061 25.51073546 12.06712311 30.88327825 8.06640625 35.55078125 C7.20015625 36.23140625 7.20015625 36.23140625 6.31640625 36.92578125 C5.78273438 36.74402344 5.2490625 36.56226563 4.69921875 36.375 C-10.14324089 31.36759579 -22.00828176 29.0580845 -37.68359375 30.92578125 C-34.42854713 34.35152652 -31.23997077 37.03591278 -27.24609375 39.55078125 C-8.06375716 52.08671022 9.42841894 66.87549909 15.31640625 89.92578125 C16.94882584 98.58517261 17.44120085 110.27729626 12.31640625 117.92578125 C0.76453146 127.40866354 -11.39572034 134.1035164 -26.43359375 134.11328125 C-27.41070313 134.12552734 -28.3878125 134.13777344 -29.39453125 134.15039062 C-34.90397796 134.16152832 -39.39167107 133.60627974 -44.68359375 131.92578125 C-46.49445596 131.83820043 -48.30812252 131.79551863 -50.12109375 131.80078125 C-55.76954198 131.40038492 -60.20661122 129.72844463 -65.24609375 127.30078125 C-65.93695068 126.98222168 -66.62780762 126.66366211 -67.33959961 126.33544922 C-70.90999553 124.50540592 -72.48372522 123.25686428 -74.60546875 119.7421875 C-75.87429855 115.25071389 -76.24010082 111.13291626 -76.37109375 106.48828125 C-76.40525391 105.66134766 -76.43941406 104.83441406 -76.47460938 103.98242188 C-76.55627996 101.96399181 -76.62163099 99.94491241 -76.68359375 97.92578125 C-70.13161114 93.17754385 -63.59078587 92.97455039 -55.68359375 92.36328125 C-45.50026624 91.455768 -35.6237516 90.34644145 -25.68359375 87.92578125 C-27.19275472 83.70572003 -29.76050637 82.41056864 -33.55859375 80.23828125 C-51.68267729 69.51998174 -67.12353504 56.64720874 -72.95703125 35.7734375 C-73.19679688 34.83371094 -73.4365625 33.89398437 -73.68359375 32.92578125 C-73.85938965 32.29357666 -74.03518555 31.66137207 -74.21630859 31.01000977 C-76.24507079 21.96113678 -76.30418631 8.08555109 -71.68359375 -0.07421875 C-65.30503671 -7.93773087 -56.27852982 -9.4137723 -46.74047852 -10.50561523 C-29.72015424 -12.2583163 -13.85616838 -10.70978954 0 0 Z " fill="#32A3FC" transform="translate(2802.68359375,499.07421875)"/>
<path d="M0 0 C1.03334835 3.20975295 1.96100569 6.44193281 2.875 9.6875 C3.16375 10.58017578 3.4525 11.47285156 3.75 12.39257812 C5.66826478 19.48510973 4.68514137 24.38550488 1.29003906 30.87866211 C-3.0238166 36.75847497 -8.91002591 40.19567641 -15.0625 43.9375 C-16.97421076 45.13422658 -18.87938981 46.34007204 -20.77891541 47.55604553 C-22.49388793 48.64872848 -24.22513749 49.71574294 -25.95727539 50.78100586 C-28.40054091 52.56282728 -29.82509276 53.83911087 -31.65478516 56.12353516 C-33.76502109 58.71179247 -34.98956889 59.9166585 -37.92578125 61.30859375 C-38.63637695 61.65913818 -39.34697266 62.00968262 -40.07910156 62.37084961 C-40.81612305 62.72284424 -41.55314453 63.07483887 -42.3125 63.4375 C-54.07131501 69.40054239 -60.72420724 75.17262171 -65 88 C-63.34750513 88.70105843 -61.67632417 89.35800351 -60 90 C-59.030625 90.391875 -58.06125 90.78375 -57.0625 91.1875 C-45.94274016 94.22841999 -32.39138784 90.04945128 -21.22998047 88.08129883 C-0.2997672 84.41711683 -0.2997672 84.41711683 7.5625 87.875 C8.38878906 88.22304688 9.21507813 88.57109375 10.06640625 88.9296875 C12 90 12 90 13 92 C13.9250259 103.82820006 13.9250259 103.82820006 11.5625 109.375 C7.8995381 113.12730243 4.1794364 116.82104644 0 120 C-0.66 120 -1.32 120 -2 120 C-2.07605469 120.76183594 -2.15210937 121.52367187 -2.23046875 122.30859375 C-3.45162662 126.57954692 -6.31016777 127.50004019 -10.02734375 129.5859375 C-14.02082647 131.48559682 -18.09233974 132.8169161 -22.3359375 134.04296875 C-25.02720257 134.86083207 -25.02720257 134.86083207 -27.0546875 136.55078125 C-29.33840772 138.25210696 -30.95320149 138.57246392 -33.75 139 C-37.07238594 139.57399933 -39.96560833 140.29687411 -43.0625 141.625 C-47.44744511 143.3649181 -51.34137126 143.31318513 -56 143 C-56.73605469 142.9690625 -57.47210937 142.938125 -58.23046875 142.90625 C-66.37085352 142.36083058 -74.21103421 140.31977471 -82 138 C-82.90621094 137.731875 -83.81242187 137.46375 -84.74609375 137.1875 C-92.39964891 134.00404552 -95.20783748 126.16239861 -98.21777344 118.94921875 C-105.22796048 101.48063782 -102.06914769 81.6099035 -95.24609375 64.40625 C-92.82569249 59.7323717 -89.48869725 55.90783403 -86 52 C-85.24976562 51.14148438 -84.49953125 50.28296875 -83.7265625 49.3984375 C-76.88897995 41.6740695 -69.95253451 34.68803601 -61.6875 28.5 C-60.93839355 27.93394043 -60.18928711 27.36788086 -59.41748047 26.78466797 C-54.0294249 22.7299318 -48.59974323 18.75860108 -43 15 C-42.19175781 14.43023437 -41.38351563 13.86046875 -40.55078125 13.2734375 C-28.07680073 4.8082848 -15.0581893 -0.26315282 0 0 Z " fill="#32A3FC" transform="translate(2223,492)"/>
<path d="M0 0 C3.53586249 3.76806838 4.74825649 9.05971102 6.18359375 13.89453125 C6.99189819 16.51284256 7.83787873 18.45230769 9.18359375 20.89453125 C12.0667815 22.0778852 12.0667815 22.0778852 15.18359375 22.89453125 C19.69583727 26.6574813 21.64944514 30.45421353 23.7421875 35.7734375 C24.20753403 36.91478653 24.20753403 36.91478653 24.68228149 38.07919312 C25.67665363 40.53283499 26.65036574 42.99394848 27.62109375 45.45703125 C27.9534201 46.29033966 28.28574646 47.12364807 28.62814331 47.98220825 C32.42320449 57.5034575 36.19415336 67.04179097 39.24609375 76.83203125 C39.61335571 77.97103882 39.61335571 77.97103882 39.98803711 79.13305664 C41.66031835 84.93447729 40.52879 88.22859686 37.89453125 93.44921875 C37.23324219 94.59777344 37.23324219 94.59777344 36.55859375 95.76953125 C35.88957031 96.94128906 35.88957031 96.94128906 35.20703125 98.13671875 C34.86929688 98.71679688 34.5315625 99.296875 34.18359375 99.89453125 C32.53359375 99.89453125 30.88359375 99.89453125 29.18359375 99.89453125 C28.68859375 101.37953125 28.68859375 101.37953125 28.18359375 102.89453125 C25.26185911 101.48335329 22.48850728 99.94183357 19.74609375 98.20703125 C19.00488281 97.74941406 18.26367188 97.29179688 17.5 96.8203125 C11.94101066 92.19875812 9.09057338 86.01860129 6.37109375 79.45703125 C6.05978516 78.72548828 5.74847656 77.99394531 5.42773438 77.24023438 C4.67208212 75.46154522 3.92672974 73.67848594 3.18359375 71.89453125 C0.89925594 71.65945502 0.89925594 71.65945502 -1.03125 74.09765625 C-1.94428604 75.10835408 -2.85143919 76.12438512 -3.75390625 77.14453125 C-4.74064883 78.24240019 -5.72763538 79.34004989 -6.71484375 80.4375 C-7.22370117 81.00645996 -7.73255859 81.57541992 -8.25683594 82.16162109 C-9.79718234 83.87317068 -11.35364838 85.56816817 -12.91796875 87.2578125 C-13.66252319 88.0626709 -13.66252319 88.0626709 -14.42211914 88.88378906 C-15.37606076 89.91398846 -16.33094116 90.94331955 -17.28686523 91.97167969 C-21.3149697 95.99885251 -21.3149697 95.99885251 -22.94140625 101.20703125 C-24.80633584 106.93502928 -31.7726189 109.98967975 -36.83984375 112.703125 C-38.61905899 113.58880788 -40.40300555 114.46504569 -42.19140625 115.33203125 C-43.073125 115.79029297 -43.95484375 116.24855469 -44.86328125 116.72070312 C-51.10623596 119.7552185 -56.02299502 120.66880164 -62.81640625 118.89453125 C-70.26292205 115.58827502 -75.62110888 109.81470512 -79.56640625 102.76953125 C-85.2581341 87.17914627 -84.79377534 73.39362222 -80.75390625 57.64453125 C-80.47949707 56.54334961 -80.20508789 55.44216797 -79.92236328 54.30761719 C-77.06779149 43.92479662 -71.97521546 36.28995507 -63.87890625 29.26953125 C-62.92113281 28.43164062 -61.96335937 27.59375 -60.9765625 26.73046875 C-60.47253906 26.290979 -59.96851563 25.85148926 -59.44921875 25.39868164 C-57.56957744 23.66715202 -55.83344879 21.82639224 -54.0703125 19.9765625 C-49.72426257 15.60006287 -44.95172276 12.39116057 -39.69140625 9.20703125 C-38.76779297 8.64612793 -37.84417969 8.08522461 -36.89257812 7.50732422 C-26.60429345 1.40067163 -11.8329175 -7.20153904 0 0 Z M-25.19140625 45.51953125 C-25.85406494 45.885625 -26.51672363 46.25171875 -27.19946289 46.62890625 C-37.75439851 52.56030566 -47.3072889 59.87629656 -52.81640625 70.89453125 C-45.50010621 72.71547704 -41.01789017 69.60904475 -34.81640625 65.89453125 C-31.6843684 63.70304531 -28.74084584 61.35308123 -25.81640625 58.89453125 C-24.99527344 58.26933594 -24.17414063 57.64414062 -23.328125 57 C-20.70417934 54.80045613 -18.68718495 52.51538293 -16.56640625 49.83203125 C-15.880625 48.97480469 -15.19484375 48.11757813 -14.48828125 47.234375 C-12.66156533 44.92040309 -12.66156533 44.92040309 -11.81640625 41.89453125 C-17.13197983 41.42021853 -20.66976442 42.96234589 -25.19140625 45.51953125 Z " fill="#32A3FC" transform="translate(467.81640625,515.10546875)"/>
<path d="M0 0 C11.82263962 8.53262905 13.09069888 25.6995587 16 39 C16.25136719 40.14210938 16.50273437 41.28421875 16.76171875 42.4609375 C19.79439617 58.16203338 17.73798145 74.98459613 16.88305664 90.82666016 C16.68792345 94.49204591 16.5088044 98.15800108 16.33007812 101.82421875 C14.38124956 139.61875044 14.38124956 139.61875044 7 147 C2.92088454 147.54831287 -0.65950363 146.94065424 -4.04296875 144.56640625 C-13.92228802 134.43431122 -12.41154405 119.40906505 -12.25 106.3125 C-12.23804683 104.46045472 -12.22698967 102.60840346 -12.21679688 100.75634766 C-12.10015325 84.16379231 -11.64414567 67.57989845 -11 51 C-21.45348294 57.11956563 -27.19263933 63.18266521 -33.25 73.5 C-36.28219241 78.5815719 -39.34879639 83.59042463 -42.72875977 88.44848633 C-50.4586869 99.56952672 -56.51036594 111.7113727 -62.39599609 123.88818359 C-62.83637207 124.7952002 -63.27674805 125.7022168 -63.73046875 126.63671875 C-64.12000732 127.45229248 -64.5095459 128.26786621 -64.91088867 129.1081543 C-66 131 -66 131 -68 132 C-70.33333333 132 -72.66666667 132 -75 132 C-76.33542939 132.32483418 -77.66961551 132.6550855 -79 133 C-81.7839183 131.60804085 -81.97898997 129.84424221 -83 127 C-84.32 127 -85.64 127 -87 127 C-92.4951435 113.07896981 -89.77489641 97.02708859 -88.25 82.5625 C-88.16041016 81.70228241 -88.07082031 80.84206482 -87.97851562 79.95578003 C-82.01862208 22.99930178 -82.01862208 22.99930178 -75.5625 16.57421875 C-73 15 -73 15 -69.9375 15.25 C-65.7967752 17.71681478 -64.73630379 20.62795576 -63 25 C-62.484375 26.175625 -61.96875 27.35125 -61.4375 28.5625 C-59.15553414 34.79402216 -58.19537779 41.48900608 -57 48 C-47.03190889 38.65794431 -47.03190889 38.65794431 -38.8125 27.8125 C-32.90624147 18.39001552 -13.05134761 -5.41153437 0 0 Z " fill="#32A3FC" transform="translate(2696,495)"/>
<path d="M0 0 C7.9588745 6.94977385 9.61316087 16.99348769 11.97265625 26.85546875 C12.18438477 27.69835449 12.39611328 28.54124023 12.61425781 29.40966797 C16.27016373 44.26794171 16.62390462 58.62612536 15.97265625 73.85546875 C15.91467865 75.22182465 15.91467865 75.22182465 15.85552979 76.61578369 C15.57399697 83.08260694 15.2539601 89.54670752 14.90359497 96.01016235 C14.78456924 98.21078338 14.66929055 100.41161082 14.55807495 102.61264038 C14.00821639 113.23085365 13.32609056 123.71696891 11.11328125 134.13671875 C10.96300476 134.8675769 10.81272827 135.59843506 10.65789795 136.35144043 C9.65596038 140.59381925 8.44187579 143.16783025 4.97265625 145.85546875 C1.71357856 146.6084904 -0.93717685 146.07486007 -4.02734375 144.85546875 C-10.64498759 139.44449701 -12.72608625 131.99688175 -14.02734375 123.85546875 C-14.4959468 117.90770953 -14.35997905 111.94061486 -14.27734375 105.98046875 C-14.26541328 104.32601511 -14.25435262 102.67155498 -14.24414062 101.01708984 C-14.1601739 90.48120976 -13.83318845 79.96964521 -13.25 69.44921875 C-12.89954497 62.91838612 -12.93568858 56.3935373 -13.02734375 49.85546875 C-25.2918412 56.75286243 -31.12342037 65.7319506 -38.28515625 77.4140625 C-40.16169404 80.4714427 -42.0749426 83.50107435 -44.01953125 86.515625 C-52.35118157 99.45384425 -60.07986808 112.59399999 -65.95703125 126.8515625 C-67.02734375 128.85546875 -67.02734375 128.85546875 -70.02734375 130.85546875 C-75.3727983 131.18274148 -75.3727983 131.18274148 -78.02734375 129.85546875 C-78.02734375 130.51546875 -78.02734375 131.17546875 -78.02734375 131.85546875 C-80.40234375 131.66796875 -80.40234375 131.66796875 -83.02734375 130.85546875 C-84.33984375 128.29296875 -84.33984375 128.29296875 -85.02734375 125.85546875 C-86.34734375 125.85546875 -87.66734375 125.85546875 -89.02734375 125.85546875 C-90.58829208 120.92464503 -91.47457545 116.26717311 -91.7578125 111.08984375 C-91.79843307 110.35658875 -91.83905365 109.62333374 -91.88090515 108.86785889 C-92.24578192 100.19955623 -91.329267 91.70594701 -90.33984375 83.10546875 C-90.152381 81.39647021 -89.96554129 79.68740322 -89.77929688 77.97827148 C-89.22222724 72.93405319 -88.63152144 67.89424096 -88.02734375 62.85546875 C-87.93950623 62.1194342 -87.8516687 61.38339966 -87.76116943 60.62506104 C-86.3019962 48.47224741 -84.80942263 36.26481621 -82.21484375 24.29296875 C-81.83392578 22.52759766 -81.83392578 22.52759766 -81.4453125 20.7265625 C-79.37835171 16.54139396 -77.33298646 15.61030908 -73.02734375 13.85546875 C-70.32996444 14.47513697 -69.47847832 15.21636144 -67.90234375 17.44921875 C-66.92535238 19.57766424 -65.95776484 21.70612391 -65.02734375 23.85546875 C-64.67414062 24.62375 -64.3209375 25.39203125 -63.95703125 26.18359375 C-61.16269142 32.60022595 -59.9310573 38.93492553 -59.02734375 45.85546875 C-51.59037535 40.99867306 -46.54422393 35.14562277 -41.52734375 27.85546875 C-33.75352311 16.56533013 -22.18331254 3.08856363 -9.05078125 -1.89453125 C-5.61557873 -2.31895782 -3.00351388 -1.69562537 0 0 Z " fill="#32A3FC" transform="translate(608.02734375,496.14453125)"/>
<path d="M0 0 C3.07462313 0 5.20055692 0.32233941 7.58984375 2.34765625 C21.60797975 18.00659188 19.90126862 39.88659367 18.86690378 59.52724838 C17.99756089 74.16472452 16.77652629 88.7806954 15.600137 103.39593124 C15.11924211 109.39853175 14.65041324 115.40207569 14.18016052 121.40551758 C13.29027275 132.74301371 12.38962845 144.07962793 11.48503774 155.41595936 C10.45795279 168.29474741 9.44379998 181.17454424 8.43034661 194.05441093 C6.93482372 213.05492326 5.43475764 232.05507897 3.92193222 251.05422211 C3.75927909 253.09755603 3.59682421 255.14090574 3.43458748 257.18427277 C1.86557677 276.93868951 1.86557677 276.93868951 1 286 C-4.06083687 288.20600581 -8.70355585 288.50318129 -14 287 C-15.76953125 285.57421875 -15.76953125 285.57421875 -17 284 C-17 283.34 -17 282.68 -17 282 C-18.32 282.66 -19.64 283.32 -21 284 C-22.90825153 279.85476454 -23.6112092 275.80606378 -24.125 271.3125 C-24.21136719 270.67505859 -24.29773438 270.03761719 -24.38671875 269.38085938 C-26.03051038 255.48690635 -24.99763187 241.2798657 -23.85424805 227.38476562 C-23.73042874 225.81485713 -23.60723937 224.24489885 -23.48461914 222.67489624 C-23.1538745 218.46202017 -22.81458669 214.24987273 -22.4737165 210.03780556 C-22.1134382 205.56562424 -21.76161857 201.09277706 -21.40888977 196.61999512 C-20.73799271 188.12785338 -20.06021947 179.63627627 -19.37965184 171.14490461 C-18.39297523 158.83114299 -17.41549418 146.51665108 -16.43936634 134.20204926 C-16.36637198 133.28120371 -16.29337761 132.36035817 -16.2181713 131.41160822 C-16.07199159 129.56744754 -15.92583234 127.72328525 -15.7796939 125.8791213 C-15.36286364 120.62208426 -14.94373044 115.36523811 -14.52239758 110.10856009 C-14.19164382 105.97937515 -13.86261684 101.85005347 -13.53393555 97.72070312 C-13.43820206 96.52092756 -13.43820206 96.52092756 -13.34053457 95.2969141 C-12.58076351 85.75161137 -11.86498335 76.20440728 -11.20571899 66.65161133 C-11.13994205 65.70437746 -11.07416511 64.75714358 -11.00639492 63.78120565 C-10.68986194 59.21603297 -10.37860113 54.65062085 -10.07727337 50.08441925 C-7.17611995 7.17611995 -7.17611995 7.17611995 0 0 Z " fill="#32A3FC" transform="translate(355,353)"/>
<path d="M0 0 C2.0234375 1.6640625 2.0234375 1.6640625 3.875 3.4375 C4.50664063 4.00210937 5.13828125 4.56671875 5.7890625 5.1484375 C12.36320431 11.33092831 18.16300013 18.59562626 19.125 27.83984375 C19.23347833 32.02303946 19.26848209 33.84727687 16.875 37.4375 C17.18340599 39.59024948 17.18340599 39.59024948 17.875 41.4375 C13.02092624 44.84567945 10.13897267 45.9589139 4.265625 45 C1.73549913 44.40467626 -0.71151984 43.66488324 -3.1875 42.875 C-17.44797721 38.41448094 -31.54666219 45.94374657 -44.125 52.4375 C-51.30961465 56.47412245 -58.24466842 60.90618686 -65.125 65.4375 C-65.74084961 65.84033203 -66.35669922 66.24316406 -66.99121094 66.65820312 C-79.65006689 75.0366171 -88.15261864 85.45249928 -91.30859375 100.5859375 C-92.50850224 107.67553769 -92.07408626 114.68149335 -91.60742188 121.828125 C-91.37372323 129.30648155 -91.37372323 129.30648155 -93.60009766 132.65820312 C-96.23837044 135.34156866 -98.99507962 137.35088642 -102.125 139.4375 C-104.625 139.3125 -104.625 139.3125 -107.125 138.4375 C-108.1510734 137.12412604 -109.15227325 135.79085895 -110.125 134.4375 C-110.75921875 134.35886719 -111.3934375 134.28023437 -112.046875 134.19921875 C-114.125 133.4375 -114.125 133.4375 -115.57421875 130.70703125 C-115.98285156 129.56621094 -116.39148437 128.42539062 -116.8125 127.25 C-117.22886719 126.12207031 -117.64523437 124.99414062 -118.07421875 123.83203125 C-119.86936053 118.03285576 -120.29118025 112.46794202 -120.328125 106.42578125 C-120.33509399 105.66392517 -120.34206299 104.90206909 -120.34924316 104.11712646 C-120.36660457 101.66136135 -120.37296627 99.20582399 -120.375 96.75 C-120.37600708 95.91491913 -120.37701416 95.07983826 -120.37805176 94.2194519 C-120.36808919 82.04417125 -119.97668912 70.32759364 -117.125 58.4375 C-116.88426758 57.42429687 -116.88426758 57.42429687 -116.63867188 56.390625 C-113.66591113 44.17316125 -113.66591113 44.17316125 -110.125 40.4375 C-107.125 40 -107.125 40 -104.125 40.4375 C-103.1055881 41.41770375 -102.10253644 42.41553008 -101.125 43.4375 C-97.14583421 43.10073318 -94.77383169 40.75058701 -91.8125 38.25 C-90.90886719 37.49332031 -90.00523438 36.73664062 -89.07421875 35.95703125 C-87.53967156 34.64606047 -86.00739789 33.33183368 -84.50610352 31.98291016 C-80.18577781 28.14577472 -75.65682547 25.12098226 -70.6875 22.1875 C-69.09585086 21.23260926 -67.5047156 20.27686151 -65.9140625 19.3203125 C-64.71765137 18.60343262 -64.71765137 18.60343262 -63.49707031 17.87207031 C-60.512125 16.06684814 -57.55864652 14.21463708 -54.60864258 12.35302734 C-52.00343986 10.70989388 -49.38799601 9.08362129 -46.77001953 7.4609375 C-45.38164065 6.5971672 -44.00051294 5.72175784 -42.62109375 4.84375 C-31.50350458 -1.87184714 -11.99118835 -7.61961372 0 0 Z " fill="#32A3FC" transform="translate(1685.125,491.5625)"/>
<path d="M0 0 C3.3125 0 3.3125 0 7 1 C8.78308403 3.41240781 9.80160251 5.3096217 11 8 C11.65162109 9.12728516 11.65162109 9.12728516 12.31640625 10.27734375 C15.30138501 15.79657798 16.48133963 20.97715021 16.80078125 27.20703125 C16.84122559 27.98978424 16.88166992 28.77253723 16.92333984 29.57901001 C17.24251792 38.50832777 15.99944103 47.09528053 14.5 55.875 C14.36306732 56.70450165 14.22613464 57.5340033 14.08505249 58.38864136 C11.97233344 71.09290127 9.46758676 83.26025676 4 95 C3.59088379 95.88445801 3.18176758 96.76891602 2.76025391 97.68017578 C-3.71134385 111.37401032 -10.21409149 123.62984122 -24 131 C-25.09828125 131.66128906 -25.09828125 131.66128906 -26.21875 132.3359375 C-34.06039818 136.9818455 -40.93883314 139.14983748 -50 137 C-62.40852458 132.89510056 -69.02395432 121.41604816 -74.77734375 110.46386719 C-81.06784733 97.78739711 -85.3300718 85.17507173 -86 71 C-86.05671875 69.87207031 -86.1134375 68.74414062 -86.171875 67.58203125 C-86.24871134 64.36643031 -86.17422934 61.21136349 -86 58 C-85.91492187 56.29263672 -85.91492187 56.29263672 -85.828125 54.55078125 C-85.24803699 48.49438615 -84.55577413 44.79764972 -79.875 40.6875 C-78.60833117 39.75665618 -77.32425953 38.84691017 -76 38 C-70.02733743 40.67740046 -66.47106173 45.4147711 -63.8125 51.3125 C-62.01635759 56.11938933 -61.30767229 60.95117273 -60.5625 66 C-59.28664353 74.52823179 -57.64414325 81.6659966 -51.0625 87.6875 C-47.36341953 89.2728202 -45.81497198 89.19217874 -42 88 C-36.82616818 85.80548145 -33.37524667 82.8854004 -29.5 78.9375 C-28.92975098 78.35895264 -28.35950195 77.78040527 -27.77197266 77.18432617 C-14.88503462 63.77784301 -12.76466274 46.91746361 -8.98217773 29.37036133 C-3.35891619 3.35891619 -3.35891619 3.35891619 0 0 Z " fill="#32A3FC" transform="translate(2091,500)"/>
<path d="M0 0 C1.74564343 2.15740649 3.18097469 4.15968312 4.625 6.5 C5.0065625 7.07492187 5.388125 7.64984375 5.78125 8.2421875 C11.98643112 18.04209424 12.43658365 27.69668133 12.25 39.0625 C12.23596647 40.50324793 12.22271645 41.94400368 12.21020508 43.38476562 C12.1716683 47.15545296 12.10957894 50.92538229 12.04034424 54.69561768 C11.99997733 57.00129504 11.96748575 59.30696526 11.93701172 61.61279297 C11.88581874 65.35947587 11.81684731 69.10542844 11.73352051 72.85153198 C11.70318182 74.26789384 11.67680351 75.68434686 11.65466309 77.1008606 C11.52145054 84.99746976 11.00259536 91.65853359 8 99 C2.18802455 100.00668059 -3.04971667 100.86883186 -8.31640625 97.7109375 C-12.19397445 93.77039256 -12.9765234 88.25655612 -14 83 C-14.14808105 82.24525391 -14.29616211 81.49050781 -14.44873047 80.71289062 C-16.63545393 69.06605779 -17.42424437 57.81925752 -17 46 C-16.96084473 44.59065186 -16.96084473 44.59065186 -16.92089844 43.15283203 C-15.96741752 8.86587746 -15.96741752 8.86587746 -10 0 C-6.11458058 -2.59027961 -3.99731548 -2.17387439 0 0 Z " fill="#32A3FC" transform="translate(2442,531)"/>
<path d="M0 0 C5.03733914 1.74884366 7.02316281 7.34660271 9.3515625 11.81640625 C10.15207031 13.14285156 10.15207031 13.14285156 10.96875 14.49609375 C15.26524207 21.7054618 15.06422661 29.73538764 13.3515625 37.81640625 C10.96277171 40.89920363 10.05816029 41.70556738 6.1640625 42.31640625 C-2.77631119 41.14389823 -2.77631119 41.14389823 -6.6484375 37.81640625 C-11.85879959 28.48400836 -12.25974532 14.10863625 -9.6484375 3.81640625 C-6.80010061 0.3566231 -4.38895218 -0.10722196 0 0 Z " fill="#32A3FC" transform="translate(2445.6484375,442.18359375)"/>
<path d="" fill="#2E9BF5" transform="translate(0,0)"/>
<path d="M0 0 C2 1 2 1 2 1 Z " fill="#2D9CF4" transform="translate(1511,396)"/>
<path d="M0 0 C2 1 2 1 2 1 Z " fill="#2D9CF4" transform="translate(275,396)"/>
<path d="" fill="#2D96F0" transform="translate(0,0)"/>
<path d="" fill="#2D96F0" transform="translate(0,0)"/>
</svg>
